<svg xmlns="http://www.w3.org/2000/svg" viewBox="0 0 176.189 176.428">
  <defs/>
  <path fill="none" stroke="#fff" stroke-miterlimit="10" d="M86.696 175.176l-.146-3.057a9.124 9.124 0 001.845.5 10.57 10.57 0 002.224.12 5.649 5.649 0 003.19-.882 2.246 2.246 0 00.941-1.913 2.083 2.083 0 00-.948-1.713 3.661 3.661 0 00-2.347-.556 4.007 4.007 0 00-1.668.4 1.794 1.794 0 00-.9.94l4.376-.213-.515 2.561-7.18.344-.067-1.452a4.832 4.832 0 011.476-4.032 7.014 7.014 0 014.521-1.6 8.691 8.691 0 013.731.551 5.434 5.434 0 012.5 1.881 5.136 5.136 0 01.973 2.85 5.3 5.3 0 01-.678 2.916 5.483 5.483 0 01-2.372 2.147 9.814 9.814 0 01-4.038.938q-.365.018-.719.018a11.353 11.353 0 01-4.199-.748zm-10.517.009a8.843 8.843 0 01-3.51-1.194 5.657 5.657 0 01-2.119-2.307 5.093 5.093 0 01-.455-2.967 5.219 5.219 0 011.23-2.752 5.927 5.927 0 012.681-1.717 9.1 9.1 0 017.21.979 5.726 5.726 0 012.124 2.382 5.212 5.212 0 01.455 2.965 5.075 5.075 0 01-1.229 2.739 5.682 5.682 0 01-2.672 1.657 8.023 8.023 0 01-2.288.316 10.61 10.61 0 01-1.427-.101zm-1.02-7.708a2.452 2.452 0 00-1.019 1.758 2.383 2.383 0 00.518 1.936 2.933 2.933 0 001.949.966 2.965 2.965 0 002.151-.411 2.616 2.616 0 00.486-3.7 2.875 2.875 0 00-1.943-1 4.091 4.091 0 00-.545-.038 2.676 2.676 0 00-1.597.489zm-15.078 3.947a8.748 8.748 0 01-3.221-1.833 5.667 5.667 0 01-1.647-2.664 5.1 5.1 0 01.11-3 5.255 5.255 0 011.731-2.474 5.911 5.911 0 012.956-1.179 9.1 9.1 0 016.9 2.317 5.722 5.722 0 011.635 2.741 5.168 5.168 0 01-.113 3 5.108 5.108 0 01-1.722 2.459 5.7 5.7 0 01-2.938 1.121c-.237.024-.48.036-.727.036a9.268 9.268 0 01-2.963-.524zm.452-7.761a2.465 2.465 0 00-1.334 1.534 2.393 2.393 0 00.146 2 2.921 2.921 0 001.73 1.317 2.967 2.967 0 002.191 0 2.615 2.615 0 001.176-3.539 2.877 2.877 0 00-1.722-1.347 3.511 3.511 0 00-1.115-.2 2.515 2.515 0 00-1.072.235zm43.839 3.344l6.752-1.7.754 3-6.749 1.7zm14.988.39a5.156 5.156 0 01-1.827-2.152 5.033 5.033 0 01-.482-2.776 5.142 5.142 0 011.276-2.754 9.516 9.516 0 013.213-2.317l4.96-2.356 4.56 9.581-5.344 2.539a8.908 8.908 0 01-3.56.955h-.151a4.859 4.859 0 01-2.644-.717zm3.393-7.587a3.124 3.124 0 00-1.692 1.607 2.864 2.864 0 001.555 3.475 2.9 2.9 0 002.184-.284l1.669-.794-2.24-4.708zm-77.129 4.845a8.9 8.9 0 01-2.84-2.345 4.92 4.92 0 01-1.036-2.694 5.2 5.2 0 01.7-2.737 5.04 5.04 0 011.985-2 5.15 5.15 0 012.983-.557 9.545 9.545 0 013.751 1.274l4.792 2.674-5.168 9.265zm1.991-7.115a2.848 2.848 0 00-1.932 3.279 2.891 2.891 0 001.494 1.614l1.615.9 2.542-4.553-1.433-.8a3.56 3.56 0 00-1.717-.512 2.344 2.344 0 00-.567.072zm80.374-3.389l3.934-2.819 6.939 3.273-3.906-5.444 2.735-1.963 6.187 8.624-4.054 2.907-6.756-3.253 3.833 5.345-2.723 1.953zm-96.5.766l2.757-6.675-6.4 3.4-3.046-2.735 10.358-4.966 3.2 2.877-3.845 10.812zm110.707-5.532a4.884 4.884 0 01-1.4-2.356 4.539 4.539 0 01.189-2.636 7.154 7.154 0 011.724-2.621 7.082 7.082 0 012.588-1.771 4.49 4.49 0 012.633-.241 4.894 4.894 0 012.394 1.349l4.273 4.192-2.643 2.694-4.219-4.137a1.816 1.816 0 00-1.38-.609 2.48 2.48 0 00-2.09 2.13 1.867 1.867 0 00.634 1.367l4.222 4.138-2.643 2.694zm-121.176-5l8-7 2.5 2.851-8 7zm-5.987-8.072a6.883 6.883 0 01-1.018-2.113 3.111 3.111 0 01-.017-1.715 2.174 2.174 0 01.876-1.164 1.856 1.856 0 011.352-.357 2.513 2.513 0 011.4.7 2.953 2.953 0 01-.188-1.911 2.633 2.633 0 011.1-1.429 2.755 2.755 0 012.6-.327 6.126 6.126 0 012.781 2.503l3.79 5.545-8.766 5.984zm2.7-2.065a.816.816 0 00-.416.63 1.591 1.591 0 00.353.916l1.215 1.777 1.453-.992-1.233-1.8c-.31-.452-.622-.682-.934-.682a.766.766 0 00-.432.151zm2.85-2.386a.775.775 0 00-.368.674 2.1 2.1 0 00.437 1.042l1.3 1.9 1.616-1.1-1.235-1.817a2.183 2.183 0 00-.88-.83.768.768 0 00-.3-.062 1 1 0 00-.564.192zm134.489 9.186a5.094 5.094 0 01-2.862-.919 5.24 5.24 0 01-1.916-2.33 5.911 5.911 0 01-.339-3.165 9.095 9.095 0 014.1-6.016 5.731 5.731 0 013.084-.837 5.192 5.192 0 012.858.919 5.093 5.093 0 011.906 2.324 5.674 5.674 0 01.288 3.131 9.658 9.658 0 01-4.105 6.026 5.66 5.66 0 01-2.935.868zm.612-9.413a3.282 3.282 0 00-2.32 3.41 2.457 2.457 0 001.119 1.7 2.384 2.384 0 001.962.4 3.416 3.416 0 002.332-3.421 2.4 2.4 0 00-1.1-1.681 2.525 2.525 0 00-1.435-.479 2.274 2.274 0 00-.553.07zM6.841 121.019l2.439-1.155 2.588 5.465 1.179-.557-2.46-5.189 2.25-1.065 2.456 5.192 1.288-.609-2.607-5.506 2.44-1.155 4.232 8.931-9.594 4.538zm155.452 6.821a3.337 3.337 0 01-1.8-1.7 3.243 3.243 0 01-.038-2.44l-4.632 1.37 1.817-4.069 5.37-1.356-3.973-1.771 1.541-3.462 9.692 4.321-3.043 6.823a5.048 5.048 0 01-1.285 1.8 3.369 3.369 0 01-1.729.789 2.987 2.987 0 01-.426.03 3.67 3.67 0 01-1.493-.334zm.869-5.784a2.027 2.027 0 00-.213 1.3 1.1 1.1 0 00.681.785c.732.327 1.308 0 1.746-.979l.916-2.048-2.259-1.014zM6.903 117.42a3.844 3.844 0 01-1.689-1.394 9.048 9.048 0 01-1.27-2.749 10.313 10.313 0 01-.464-2.6 7.788 7.788 0 01.2-1.975l2.524-.759a6.92 6.92 0 00-.13 1.827 9.083 9.083 0 00.39 2.242q.565 1.872 1.173 1.689a.44.44 0 00.3-.359 3.617 3.617 0 00-.052-1.013l-.228-1.7a5.609 5.609 0 01.254-2.943 2.755 2.755 0 011.853-1.474 2.969 2.969 0 012.023.088 4.039 4.039 0 011.758 1.418 7.981 7.981 0 011.244 2.554 10.46 10.46 0 01.463 2.806 8.135 8.135 0 01-.255 2.465l-2.628.792a9.384 9.384 0 00.316-2.423 8.491 8.491 0 00-.359-2.455 4.16 4.16 0 00-.549-1.244.548.548 0 00-.617-.258.57.57 0 00-.391.435 3.351 3.351 0 000 1.121l.177 1.53a5.29 5.29 0 01-.323 2.98 2.8 2.8 0 01-1.822 1.465 3.086 3.086 0 01-.888.136 2.724 2.724 0 01-1.01-.202zm155.212-7.783l2.052-9.527 10.38 2.235-.8 3.7-7.353-1.584-1.255 5.822zM1.157 98.182l-.448-5.407 10.27-4.57.32 3.834-1.973.818.327 3.972 2.08.482.308 3.731zm2.184-2.84l4.142.966-.216-2.6zM164.367 99.1l.7-9.717 10.583.766-.274 3.778-7.5-.542-.431 5.938zm.548-14.386l1.975-.807-.312-3.976-2.078-.491-.291-3.733 10.876 2.9.424 5.412-10.295 4.529zm4.04-1.652l3.934-1.616-4.14-.984zM.533 86.662l.258-3.78 7.5.512.4-5.943 3.088.211-.667 9.724zm1.064-12.22l.783-3.707 7.359 1.553 1.228-5.827 3.027.639-2.013 9.532zm162.885-3.982a4.007 4.007 0 01-1.75-1.427 7.933 7.933 0 01-1.234-2.558 10.352 10.352 0 01-.452-2.808 8.113 8.113 0 01.266-2.466l2.631-.777a9.259 9.259 0 00-.327 2.418 8.4 8.4 0 00.351 2.459 4.133 4.133 0 00.543 1.244.547.547 0 00.614.263.58.58 0 00.4-.433 3.468 3.468 0 000-1.123l-.168-1.53a5.3 5.3 0 01.334-2.978 3.058 3.058 0 013.732-1.39 3.807 3.807 0 011.681 1.4 8.965 8.965 0 011.259 2.756 10.162 10.162 0 01.455 2.6 7.783 7.783 0 01-.205 1.973l-2.53.749a6.873 6.873 0 00.136-1.826 8.86 8.86 0 00-.38-2.243c-.371-1.25-.757-1.816-1.165-1.693a.432.432 0 00-.3.357 3.5 3.5 0 00.047 1.014l.219 1.706a5.583 5.583 0 01-.266 2.939 2.752 2.752 0 01-1.859 1.467 3.1 3.1 0 01-.886.133 2.972 2.972 0 01-1.146-.226zM5.798 58.034L8.817 51.2a5.089 5.089 0 011.277-1.805 3.394 3.394 0 011.728-.8 3.5 3.5 0 011.922.3 3.346 3.346 0 011.8 1.691 3.26 3.26 0 01.052 2.442l4.623-1.39-1.8 4.075-5.36 1.387 3.982 1.756-1.53 3.466zm4.878-4.441l-.907 2.052 2.264 1 .861-1.956a2.034 2.034 0 00.21-1.3 1.107 1.107 0 00-.684-.783 1.293 1.293 0 00-.518-.121c-.493 0-.899.368-1.226 1.109zm145.031-2.251l9.612-4.495 4.17 8.908-2.444 1.145-2.563-5.476-1.181.553 2.436 5.2-2.254 1.053-2.434-5.2-1.294.6 2.586 5.516-2.445 1.143zM18.886 48.95a5.227 5.227 0 01-2.864-.906 5.084 5.084 0 01-1.913-2.315 5.68 5.68 0 01-.3-3.131 8.771 8.771 0 011.454-3.425 8.793 8.793 0 012.625-2.619 5.665 5.665 0 013.008-.879 5.1 5.1 0 012.864.908 5.188 5.188 0 011.92 2.317 5.878 5.878 0 01.357 3.165 8.339 8.339 0 01-1.404 3.442 8.347 8.347 0 01-2.668 2.593 5.769 5.769 0 01-2.941.852zm.647-9.364a2.913 2.913 0 00-1.731 1.319 2.961 2.961 0 00-.584 2.113 2.62 2.62 0 003.1 2.072 3.276 3.276 0 002.305-3.419 2.46 2.46 0 00-1.12-1.691 2.514 2.514 0 00-1.411-.461 2.364 2.364 0 00-.559.067zm135.7 9.138a6.13 6.13 0 01-2.771-2.519l-3.762-5.56 8.789-5.945 3.883 5.734a6.905 6.905 0 011.013 2.117 3.093 3.093 0 01.007 1.715 2.166 2.166 0 01-.879 1.162 1.876 1.876 0 01-1.356.348 2.506 2.506 0 01-1.395-.7 2.942 2.942 0 01.182 1.911 2.643 2.643 0 01-1.106 1.425 2.752 2.752 0 01-1.566.506 3.071 3.071 0 01-1.039-.194zm-2.406-6.388l1.234 1.82a2.154 2.154 0 00.876.833.876.876 0 00.866-.127.77.77 0 00.369-.671 2.139 2.139 0 00-.433-1.044l-1.29-1.906zm3.238-2.193l1.224 1.807c.451.667.907.852 1.37.538a.824.824 0 00.418-.63 1.587 1.587 0 00-.349-.917l-1.207-1.782zm-11.163-3.705l8.023-6.963 2.485 2.857-8.027 6.968zm-116.851.491a4.887 4.887 0 01-2.4-1.338l-4.292-4.174 2.633-2.7 4.241 4.115a1.817 1.817 0 001.378.6 2.474 2.474 0 002.078-2.132 1.852 1.852 0 00-.638-1.362l-4.238-4.127 2.631-2.7 4.289 4.17a4.877 4.877 0 011.414 2.35 4.565 4.565 0 01-.178 2.638 7.173 7.173 0 01-1.706 2.631 7.124 7.124 0 01-2.583 1.782 4.662 4.662 0 01-1.733.346 4.352 4.352 0 01-.898-.099zm110.039-7.1l3.888-10.793 3.011 2.727-2.782 6.661 6.414-3.376 3.034 2.748-10.373 4.922zM32.033 20.845l4.042-2.922 6.767 3.221-3.857-5.327 2.712-1.965 6.224 8.594-3.915 2.834-6.95-3.241 3.927 5.426-2.724 1.973zm97.022 1.433a9.537 9.537 0 01-3.746-1.291l-4.776-2.687 5.2-9.25 5.153 2.9a8.828 8.828 0 012.829 2.358 4.872 4.872 0 011.023 2.7 5.179 5.179 0 01-.7 2.735 5.052 5.052 0 01-1.994 1.992 4.942 4.942 0 01-2.392.574c-.194-.003-.39-.009-.595-.031zm-3.9-4.475l1.424.8a3.114 3.114 0 002.287.452 2.514 2.514 0 001.635-1.323 2.535 2.535 0 00.31-1.948 2.906 2.906 0 00-1.489-1.62l-1.612-.908zm-80.34-5.81l5.329-2.563a8.885 8.885 0 013.553-.97 4.9 4.9 0 012.8.706 5.157 5.157 0 011.84 2.143 5.045 5.045 0 01.496 2.771 5.172 5.172 0 01-1.26 2.761 9.542 9.542 0 01-3.2 2.33l-4.942 2.38zm6.253-.015l-1.669.8 2.265 4.7 1.474-.71a3.117 3.117 0 001.679-1.616 2.5 2.5 0 00-.153-2.1 2.526 2.526 0 00-1.415-1.37 2.119 2.119 0 00-.668-.1 3.529 3.529 0 00-1.51.397zm61.73 3.845a8.353 8.353 0 01-3.2-1.892 5.722 5.722 0 01-1.625-2.75 5.19 5.19 0 01.124-3 5.1 5.1 0 011.736-2.449 5.706 5.706 0 012.942-1.113 9.693 9.693 0 016.9 2.354 5.65 5.65 0 011.639 2.673 5.091 5.091 0 01-.127 3 5.215 5.215 0 01-1.739 2.466 5.912 5.912 0 01-2.96 1.168 7.245 7.245 0 01-.839.049 8.837 8.837 0 01-2.848-.506zm.468-7.8a2.4 2.4 0 00-1.331 1.5 2.389 2.389 0 00.141 2.033 3.287 3.287 0 003.9 1.329 2.453 2.453 0 001.337-1.527 2.392 2.392 0 00-.134-2 2.941 2.941 0 00-1.727-1.325 3.7 3.7 0 00-1.185-.214 2.493 2.493 0 00-.998.202zm-14.47 4.467a8.371 8.371 0 01-3.5-1.254 5.761 5.761 0 01-2.114-2.392 5.209 5.209 0 01-.443-2.967 5.091 5.091 0 011.241-2.735A5.7 5.7 0 0196.663 1.5a9.689 9.689 0 017.221 1.009 5.65 5.65 0 012.107 2.313 5.088 5.088 0 01.443 2.969 5.249 5.249 0 01-1.243 2.75 5.922 5.922 0 01-2.688 1.7 7.663 7.663 0 01-2.333.346 10 10 0 01-1.374-.097zm-1.012-7.746a2.384 2.384 0 00-1.024 1.723 2.4 2.4 0 00.522 1.969 3.285 3.285 0 004.084.572 2.456 2.456 0 001.025-1.754 2.394 2.394 0 00-.509-1.938 2.929 2.929 0 00-1.949-.974 4.263 4.263 0 00-.59-.042 2.7 2.7 0 00-1.559.444zm-16.5 6.485a5.482 5.482 0 01-2.494-1.893 5.144 5.144 0 01-.957-2.855 5.249 5.249 0 01.694-2.911 5.461 5.461 0 012.38-2.137 9.782 9.782 0 014.039-.918 11.716 11.716 0 014.922.757l.133 3.057a9.266 9.266 0 00-1.845-.512 10.59 10.59 0 00-2.223-.131 5.652 5.652 0 00-3.194.867 2.255 2.255 0 00-.949 1.906 2.088 2.088 0 00.943 1.719 3.667 3.667 0 002.346.566 3.97 3.97 0 001.667-.392 1.807 1.807 0 00.9-.933l-4.378.191.524-2.556 7.183-.312.058 1.452a4.818 4.818 0 01-1.5 4.024 7 7 0 01-4.519 1.582q-.267.012-.522.012a8.37 8.37 0 01-3.209-.583zM63.975 8.224L70.718 6.5l.769 3-6.745 1.723z"/>
</svg>
