<svg xmlns="http://www.w3.org/2000/svg" viewBox="0 0 160.945 161.119">
  <defs>
    <clipPath id="signup-mask">
      <path fill="none" stroke="#fff" d="M0 0h160.945v161.119H0z"/>
    </clipPath>
  </defs>
  <g fill="none" stroke="#fff" clipPath="url(#signup-mask)">
    <path d="M68.897 16.926a11.879 11.879 0 01-3.51-1.011l-.462-4.014a13.632 13.632 0 003.425 1.088 12.442 12.442 0 003.654.118 6.139 6.139 0 001.946-.471.807.807 0 00.534-.825.837.837 0 00-.528-.681 5.011 5.011 0 00-1.628-.284l-2.264-.144a7.817 7.817 0 01-4.23-1.238 4.141 4.141 0 01-1.651-3.028 4.152 4.152 0 01.583-2.741 5.61 5.61 0 012.456-2.08 13.243 13.243 0 014.32-1.126 15.047 15.047 0 013.887 0 11.455 11.455 0 012.811.8l.444 3.858a10.114 10.114 0 00-2.616-.665 13.19 13.19 0 00-3.35-.018q-2.86.33-2.753 1.261a.651.651 0 00.443.533 5.314 5.314 0 001.482.189l2.53.117a8.212 8.212 0 014.2 1.134 4.046 4.046 0 011.654 3.066 4.359 4.359 0 01-.654 2.9 5.911 5.911 0 01-2.513 2.177 11.688 11.688 0 01-4.026 1.138 15.327 15.327 0 01-4.184-.053z" />
    <path d="M82.353 16.062L83.479347.455593l5.565524.401675-1.126347 15.606408z"/>
    <path d="M100.659 9.385l10.141 3.018-.61 2.057a7.115 7.115 0 01-4.016 4.884 10.319 10.319 0 01-7.062.018 12.822 12.822 0 01-4.915-2.581 8.023 8.023 0 01-2.563-3.839 7.571 7.571 0 01.04-4.437 7.762 7.762 0 012.365-3.722 8.065 8.065 0 014.341-1.829 14.514 14.514 0 016.068.664 17.3 17.3 0 016.482 3.42l-1.286 4.322a13.487 13.487 0 00-2.323-1.6 15.34 15.34 0 00-3.028-1.25 8.319 8.319 0 00-4.863-.329 3.313 3.313 0 00-2.239 2.2 3.078 3.078 0 00.481 2.845 5.406 5.406 0 002.993 1.915 5.837 5.837 0 002.509.258 2.665 2.665 0 001.7-.868l-6.177-1.84z" />
    <path d="M122.933 24.333l5.427-8.024 4.083 2.766-8.751 12.941-5.9-3.989.98-11.247-5.529 8.171-4.1-2.777 8.753-12.941 6.083 4.114z" />
    <path d="M131.398 40.316a6.613 6.613 0 01.417-3.873 7.194 7.194 0 012.64-3.064l7.291-4.957 3.125 4.6-7.199 4.89a2.673 2.673 0 00-1.277 1.81 3.07 3.07 0 00.633 2.241 3.047 3.047 0 001.839 1.395 2.744 2.744 0 002.156-.521l7.2-4.894 3.125 4.6-7.291 4.957a7.181 7.181 0 01-3.808 1.347 6.736 6.736 0 01-3.755-1.037 10.509 10.509 0 01-3.285-3.245 10.509 10.509 0 01-1.811-4.249z" />
    <path d="M157.339 58.374a6.418 6.418 0 01-.039 4.869 5.708 5.708 0 01-3.523 2.808 5.707 5.707 0 01-3.135.172 5.423 5.423 0 01-2.69-1.638 9.279 9.279 0 01-1.9-3.466l-1.341-4.139-3.863 1.253-1.722-5.307 14.88-4.826zm-8.358.271a3.35 3.35 0 001.178 1.823 1.9 1.9 0 001.706.2 1.923 1.923 0 001.244-1.083 2.818 2.818 0 00-.062-1.927l-.991-3.058-3.97 1.285z" />
    <path d="M160.005 91.315l-4.395-.151.184-5.308-11.221-.39.193-5.576 11.221.387.186-5.421 4.4.152z" />
    <path d="M143.725 95.663a8.454 8.454 0 014.025-2.43 7.672 7.672 0 014.419.143 7.513 7.513 0 013.633 2.519 8.385 8.385 0 011.674 4.318 12.991 12.991 0 01-.694 5.436 12.963 12.963 0 01-2.678 4.756 8.323 8.323 0 01-3.912 2.444 7.514 7.514 0 01-4.416-.146 7.686 7.686 0 01-3.656-2.527 8.7 8.7 0 01-1.76-4.344 12.276 12.276 0 01.623-5.435 12.275 12.275 0 012.742-4.734zm1.623 9.376a3.617 3.617 0 002.27 1.95 3.52 3.52 0 002.942-.225 4.313 4.313 0 001.929-2.56 4.373 4.373 0 00-.013-3.228 3.522 3.522 0 00-2.229-1.933 3.527 3.527 0 00-2.992.233 4.234 4.234 0 00-1.97 2.545 4.236 4.236 0 00.063 3.218z" />
    <path d="M132.521 119.404a8.456 8.456 0 014.658-.635 7.669 7.669 0 014 1.882 7.513 7.513 0 012.341 3.751 8.388 8.388 0 01-.168 4.627 13 13 0 01-2.788 4.719 12.961 12.961 0 01-4.342 3.308 8.324 8.324 0 01-4.56.7 7.51 7.51 0 01-4-1.882 7.688 7.688 0 01-2.358-3.774 8.7 8.7 0 01.1-4.686 12.285 12.285 0 012.727-4.745 12.284 12.284 0 014.39-3.265zm-2.219 9.254a3.619 3.619 0 001.313 2.689 3.523 3.523 0 002.792.957 4.315 4.315 0 002.783-1.588 4.373 4.373 0 001.264-2.969 3.521 3.521 0 00-1.28-2.659 3.527 3.527 0 00-2.843-.969 4.237 4.237 0 00-2.814 1.558 4.238 4.238 0 00-1.215 2.981z" />
    <path d="M117.619 133.44a6.622 6.622 0 013.845.63 7.192 7.192 0 012.913 2.806l4.548 7.554-4.762 2.867-4.49-7.458a2.671 2.671 0 00-1.74-1.376 3.068 3.068 0 00-2.273.509 3.054 3.054 0 00-1.495 1.758 2.746 2.746 0 00.4 2.182l4.49 7.458-4.76 2.867-4.548-7.553a7.187 7.187 0 01-1.136-3.877 6.739 6.739 0 011.244-3.693 10.529 10.529 0 013.422-3.1 10.532 10.532 0 014.342-1.574z" />
    <path d="M87.975 144.818l6.35-1.654 6.5 4.927-1.615-6.2 5.394-1.405 3.939 15.118-10.647 2.774a7.462 7.462 0 01-3.251.178 5 5 0 01-2.5-1.264 5.125 5.125 0 01-1.411-2.492 4.93 4.93 0 01.3-3.63 4.781 4.781 0 012.77-2.29zm13.261 4.868l-3.044.8a2.983 2.983 0 00-1.691.948 1.627 1.627 0 00-.277 1.5c.3 1.144 1.2 1.509 2.734 1.11l3.2-.833z" />
    <path d="M68.038 149.57l-1.169 9.61-4.9-.6 1.892-15.5 7.067.862 4.255 10.456 1.195-9.791 4.917.6-1.892 15.506-7.288-.889z" />
    <path d="M54.506 145.767l.816-1.933-8.265-3.488 1.544-3.66 13.406 5.658-6.075 14.392-13.343-5.632 1.544-3.659 8.2 3.462.746-1.768-7.79-3.289 1.425-3.372z" />
    <path d="M29.63 129.209l-8.019 5.748-4.176-3.702 13.305-9.086 5.345 4.739-4.311 9.035 8.337-5.466 4.827 4.28-7.409 14.312-4.209-3.731 4.487-8.223-7.894 5.2-4.66-4.131z" />
    <path d="M26.658 115.897a11.866 11.866 0 01.456 3.623l-3.508 2.008a13.631 13.631 0 00-.354-3.578 12.441 12.441 0 00-1.333-3.4 6.162 6.162 0 00-1.2-1.6.807.807 0 00-.969-.164.837.837 0 00-.417.753 5.013 5.013 0 00.381 1.608l.761 2.136a7.814 7.814 0 01.529 4.378 4.138 4.138 0 01-2.125 2.71 4.154 4.154 0 01-2.748.546 5.612 5.612 0 01-2.877-1.444 13.252 13.252 0 01-2.74-3.523 15.057 15.057 0 01-1.532-3.567 11.431 11.431 0 01-.376-2.898l3.37-1.931a10.113 10.113 0 00.421 2.665 13.2 13.2 0 001.309 3.085q1.432 2.5 2.245 2.031a.649.649 0 00.314-.618 5.309 5.309 0 00-.411-1.436l-.898-2.368a8.21 8.21 0 01-.615-4.3 4.047 4.047 0 012.165-2.74 4.357 4.357 0 012.926-.542 5.917 5.917 0 012.992 1.449 11.7 11.7 0 012.634 3.249 15.318 15.318 0 011.6 3.868z" />
    <path d="M3.822 103.029l10.657-3-2.377-8.444 4.383-1.234 3.89 13.816-15.041 4.234z" />
    <path d="M10.191 84.016l2.1-.063-.274-8.968 3.971-.12.439 14.544-15.615.472-.437-14.478 3.971-.12.269 8.9 1.919-.058-.259-8.454 3.661-.106z" />
    <path d="M4.232 55.001l4.292.954-1.152 5.186 10.96 2.435-1.211 5.448-10.96-2.436-1.176 5.295-4.293-.954z" />
    <path d="M12.846 36.999l3.923 1.988-2.4 4.738 10.011 5.074-2.522 4.98-10.015-5.08-2.452 4.842-3.922-1.988z" />
    <path d="M26.518 35.182l1.578 1.382 5.911-6.75 2.989 2.617-9.587 10.948-11.754-10.29 9.543-10.9 2.989 2.617-5.867 6.7 1.444 1.264 5.573-6.364 2.754 2.412z" />
    <path d="M52.492 21.777L47.024 25.4l-7.744-2.55 3.54 5.338-4.649 3.086-8.634-13.019 9.169-6.08a7.469 7.469 0 013.017-1.225 5 5 0 012.772.384 5.122 5.122 0 012.143 1.9 4.931 4.931 0 01.9 3.53 4.778 4.778 0 01-1.881 3.065zm-14.124-.3l2.623-1.739a2.983 2.983 0 001.291-1.445 1.627 1.627 0 00-.225-1.511c-.654-.985-1.625-1.037-2.946-.162l-2.754 1.825z" />
  </g>
</svg>
